<svg xmlns="http://www.w3.org/2000/svg" height="800" width="1200" viewBox="-21.635415 -11.834225 187.50693 71.00535"><defs><clipPath id="a" clipPathUnits="userSpaceOnUse"><path d="M0 123.761h357.71V0H0z"/></clipPath></defs><path d="M122.4203 9.4467l-5.4541 3.1492 2.7278 1.5748 2.7263-1.5743zm0 0l-5.4541-3.1481 5.4541-3.1487z" fill="#cedc00"/><path d="M122.4203 9.4467l-5.4541 3.1492-5.4537-3.1492 5.4537-3.1481z" fill="#0082ca"/><path d="M144.2361 3.1502L138.7804 0v6.2994z" fill="#e63323"/><path d="M109.0824 40.7939L97.748 34.2498v13.0871zm2.4296-25.0489l5.4542-3.1491-5.4542-3.1492zm0-12.5951v6.2968l5.4542-3.1482zm10.9084 25.1903v-9.4465l5.4542 3.1492V9.4472l-5.4542 3.1492V3.1499l21.8157 12.5951z" fill="#08bec9"/><g clip-path="url(#a)" transform="matrix(.50883 0 0 -.50883 -25.1894 53.5296)"><path d="M211.2783 32.6406v10.502l9.097-5.252zm41.467 41.616v12.38l10.722-6.191zm-174.88-2.176h4.773v-3.746h-4.773zm-7.764 0h4.773v-3.746h-4.773zm10.618-22.557l-.708 2.223c-.161-.323-1.449-2.544-4.893-2.544-3.09 0-6.747 1.674-6.747 6.985v9.328h4.795v-9.359c0-2.381 1.287-3.446 2.961-3.446 2.189 0 3.529 1.739 3.529 4.057v8.748h4.712v-15.992zm-13.796 24.733v-4.138h-6.234v-20.615h-4.95v20.615h-6.235v4.138zm27.349-6.365l-.017-2.706c1.131 2.334 2.87 2.882 6.123 2.882v-4.666h-.601c-3.112 0-5.339-1.556-5.339-5.519v-8.379h-4.774v18.388zm55.141 6.365v-4.138h-6.233v-20.615h-4.95v20.615h-6.235v4.138zm78.356-21.458c-3.271 0-5.925 2.653-5.925 5.926 0 3.274 2.654 5.925 5.925 5.925 3.274 0 5.926-2.651 5.926-5.925 0-3.273-2.652-5.926-5.926-5.926m0 16.359c-5.761 0-10.429-4.671-10.429-10.433s4.668-10.434 10.429-10.434c5.764 0 10.436 4.672 10.436 10.434s-4.672 10.433-10.436 10.433m17.446-1.266l.778-2.439c.777 1.591 3.005 2.793 5.091 2.793 2.157 0 4.209-1.273 5.057-3.289.92 1.803 2.899 3.289 5.939 3.289 3.785 0 6.577-2.334 6.577-7.673v-11.069h-4.775v11.386c0 1.876-.743 3.502-2.969 3.502-2.365 0-3.394-1.875-3.394-4.28v-10.608h-4.773v11.635c0 1.627-.777 3.253-2.935 3.253-2.369 0-3.43-1.875-3.43-4.243v-10.645h-4.775v18.388zm-40.113 7.159l.005-15.256 6.137 8.097h5.691l-7.284-8.63 6.965-9.758h-5.338l-4.386 6.401-1.768-1.981v-4.42h-4.772v22.862zm-96.279 0l.004-15.256 6.135 8.097h5.694l-7.285-8.63 6.967-9.758h-5.341l-4.383 6.401-1.769-1.981v-4.42h-4.772v22.862zm79.464-6.805c5.374 0 8.594-3.572 8.594-9.124 0-1.028-.106-1.875-.106-1.875h-13.014c.212-2.901 2.758-4.208 5.339-4.208 1.698 0 3.925.461 5.269 1.168l1.625-3.464c-1.979-1.063-4.772-1.594-6.999-1.594-6.259 0-10.256 3.855-10.256 9.478 0 5.658 3.891 9.619 9.548 9.619m3.996-7.816c-.036 2.124-1.237 3.961-3.713 3.961-2.617 0-4.385-1.309-4.879-3.961zm-18.457 14.602v-20.543c0-1.024.601-1.485 1.661-1.485.248 0 .778.071 1.131.141v-3.641c-.953-.177-2.156-.355-3.253-.355-2.227 0-4.313.848-4.313 5.023v18.194zm-17.007-6.786c5.374 0 8.591-3.572 8.591-9.124 0-1.028-.105-1.875-.105-1.875h-13.012c.212-2.901 2.758-4.208 5.338-4.208 1.698 0 3.924.461 5.269 1.168l1.627-3.464c-1.981-1.063-4.774-1.594-7.002-1.594-6.258 0-10.253 3.855-10.253 9.478 0 5.658 3.889 9.619 9.547 9.619m3.995-7.816c-.035 2.124-1.238 3.961-3.713 3.961-2.616 0-4.384-1.309-4.88-3.961z" fill="#002855"/><path d="M300.8135 86.6342l-10.719-6.189v-12.377l10.719-6.188z" fill="#0082ca"/><path d="M279.376 74.2563l10.719-6.188v12.377z" fill="#002855"/></g></svg>